<?xml version="1.0" encoding="iso-8859-1"?>
<!-- Generator: Adobe Illustrator 19.0.0, SVG Export Plug-In . SVG Version: 6.00 Build 0)  -->
<svg version="1.1" id="Capa_1" xmlns="http://www.w3.org/2000/svg" xmlns:xlink="http://www.w3.org/1999/xlink" x="0px" y="0px"
	 viewBox="0 0 409.6 409.6" style="enable-background:new 0 0 409.6 409.6;" xml:space="preserve">
<path style="fill:#FCD462;" d="M20.775,75.178c9.261,0.597,16.699,7.921,18.054,17.102L53.4,191.061
	c0.144,0.974-0.584,1.846-1.567,1.91c-23.439,1.535-30.691,15.798-30.691,15.798c-14.014,27.089,7.989,42.384,7.989,42.384
	l65.701,38.094c2.937,1.729,6.824,1.115,8.813-1.652c2.278-3.17,1.292-7.522-1.991-9.44l-63.206-36.321
	c-9.527-5.565-12.999-17.978-7.132-27.322c5.594-8.907,17.172-11.7,26.17-6.478l102.567,58.895
	c18.191,10.556,29.405,29.981,29.449,51.014l0.209,91.47l-87.676,0.186l0.785-41.395c0.077-4.82-2.154-9.386-6.003-12.287
	l-86.122-65.542c-6.682-5.035-10.612-12.914-10.615-21.281L0,94.626C-0.005,83.439,9.423,74.446,20.775,75.178z"/>
<path style="fill:#F6C358;" d="M388.824,75.178c-9.261,0.597-16.699,7.921-18.054,17.102L356.2,191.061
	c-0.144,0.974,0.585,1.846,1.567,1.91c23.439,1.535,30.691,15.798,30.691,15.798c14.014,27.089-7.989,42.384-7.989,42.384
	l-65.701,38.094c-2.937,1.729-6.824,1.115-8.813-1.652c-2.278-3.17-1.292-7.522,1.991-9.44l63.206-36.321
	c9.527-5.565,12.999-17.978,7.132-27.322c-5.594-8.907-17.171-11.7-26.17-6.478L249.545,266.93
	c-18.19,10.556-29.405,29.981-29.448,51.014l-0.209,91.47l87.676,0.186l-0.785-41.395c-0.077-4.82,2.154-9.386,6.004-12.287
	l86.122-65.542c6.682-5.035,10.612-12.914,10.615-21.281L409.6,94.626C409.605,83.439,400.176,74.446,388.824,75.178z"/>
<path style="fill:#E56353;" d="M142.979,0c-42.633,0-77.195,34.562-77.195,77.194c0,58.691,138.996,177.644,139.017,177.66V31.107
	C190.724,12.26,168.311,0,142.979,0z"/>
<path style="fill:#D15241;" d="M266.623,0c-25.335,0-47.748,12.26-61.822,31.107l0,0v223.747v0.002
	c0,0,139.014-118.965,139.014-177.662C343.815,34.562,309.255,0,266.623,0z"/>
<g>
</g>
<g>
</g>
<g>
</g>
<g>
</g>
<g>
</g>
<g>
</g>
<g>
</g>
<g>
</g>
<g>
</g>
<g>
</g>
<g>
</g>
<g>
</g>
<g>
</g>
<g>
</g>
<g>
</g>
</svg>
